<?xml version="1.0" encoding="utf-8"?>
<!-- Generator: Adobe Illustrator 16.0.0, SVG Export Plug-In . SVG Version: 6.00 Build 0)  -->
<!DOCTYPE svg PUBLIC "-//W3C//DTD SVG 1.1//EN" "http://www.w3.org/Graphics/SVG/1.1/DTD/svg11.dtd">
<svg version="1.1" id="Layer_1" xmlns="http://www.w3.org/2000/svg" xmlns:xlink="http://www.w3.org/1999/xlink" x="0px" y="0px"
	 width="595.28px" height="841.89px" viewBox="0 0 595.28 841.89" enable-background="new 0 0 595.28 841.89" xml:space="preserve">
<text transform="matrix(1 0 0 1 99.7646 267.353)" fill="#FFFFFF" font-family="'MonkirtaPursuitNC'" font-size="48" letter-spacing="-2">Archives Server</text>
<g>
	<path fill="#4CBAEA" stroke="#000000" stroke-miterlimit="10" d="M50.711,259.997c0.592-0.04,1.347-0.04,2.429-0.04h32.072
		c1.083,0,1.837,0,2.428,0.04c0.581,0.041,0.919,0.115,1.178,0.223c0.842,0.35,1.51,1.024,1.859,1.87
		c0.106,0.259,0.181,0.599,0.22,1.183c0.042,0.595,0.042,1.354,0.042,2.443c0,1.089,0,1.849-0.042,2.443
		c-0.039,0.583-0.114,0.925-0.22,1.185c-0.349,0.846-1.017,1.519-1.859,1.871c-0.259,0.107-0.597,0.182-1.178,0.223
		c-0.591,0.041-1.345,0.041-2.428,0.041H53.141c-1.083,0-1.837,0-2.429-0.041c-0.58-0.041-0.919-0.116-1.178-0.223
		c-0.84-0.352-1.509-1.024-1.858-1.871c-0.107-0.26-0.182-0.601-0.221-1.185c-0.041-0.595-0.042-1.354-0.042-2.443
		c0-1.09,0.001-1.849,0.042-2.443c0.039-0.584,0.114-0.924,0.221-1.183c0.349-0.846,1.018-1.521,1.858-1.87
		C49.792,260.112,50.131,260.038,50.711,259.997z M53.141,268.021c1.265,0,2.291-1.031,2.291-2.305c0-1.271-1.026-2.305-2.291-2.305
		c-1.264,0-2.291,1.033-2.291,2.305C50.85,266.99,51.876,268.021,53.141,268.021L53.141,268.021z M53.141,243.827
		c-1.083,0-1.837-0.001-2.429-0.042c-0.58-0.04-0.919-0.114-1.178-0.222c-0.84-0.351-1.509-1.024-1.858-1.871
		c-0.107-0.26-0.182-0.599-0.221-1.183c-0.041-0.595-0.042-1.354-0.042-2.443c0-1.09,0.001-1.848,0.042-2.444
		c0.039-0.583,0.114-0.924,0.221-1.184c0.349-0.847,1.018-1.52,1.858-1.871c0.259-0.107,0.598-0.182,1.178-0.221
		c0.592-0.042,1.347-0.042,2.429-0.042h32.072c1.083,0,1.837,0,2.428,0.042c0.581,0.039,0.919,0.114,1.178,0.221
		c0.842,0.352,1.51,1.024,1.859,1.871c0.106,0.26,0.181,0.6,0.22,1.184c0.042,0.596,0.042,1.354,0.042,2.444
		c0,1.089,0,1.849-0.042,2.443c-0.039,0.583-0.114,0.923-0.22,1.183c-0.349,0.847-1.017,1.521-1.859,1.871
		c-0.259,0.108-0.597,0.182-1.178,0.222c-0.591,0.041-1.345,0.042-2.428,0.042H53.141z M53.141,246.13
		c-1.083,0-1.837,0.001-2.429,0.042c-0.58,0.039-0.919,0.114-1.178,0.222c-0.84,0.351-1.509,1.023-1.858,1.871
		c-0.107,0.258-0.182,0.599-0.221,1.183c-0.041,0.595-0.042,1.354-0.042,2.443c0,1.09,0.001,1.848,0.042,2.444
		c0.039,0.583,0.114,0.924,0.221,1.183c0.349,0.848,1.018,1.521,1.858,1.872c0.259,0.107,0.598,0.182,1.178,0.221
		c0.592,0.04,1.347,0.042,2.429,0.042h32.072c1.083,0,1.837-0.001,2.428-0.042c0.581-0.039,0.919-0.114,1.178-0.221
		c0.842-0.352,1.51-1.024,1.859-1.872c0.106-0.259,0.181-0.599,0.22-1.183c0.042-0.596,0.042-1.354,0.042-2.444
		c0-1.089,0-1.849-0.042-2.443c-0.039-0.583-0.114-0.925-0.22-1.183c-0.349-0.848-1.017-1.521-1.859-1.871
		c-0.259-0.108-0.597-0.183-1.178-0.222c-0.591-0.041-1.345-0.042-2.428-0.042H53.141L53.141,246.13z M55.432,251.891
		c0,1.272-1.026,2.304-2.291,2.304c-1.264,0-2.291-1.032-2.291-2.304c0-1.271,1.026-2.305,2.291-2.305
		C54.406,249.586,55.432,250.62,55.432,251.891z M53.141,240.37c1.265,0,2.291-1.033,2.291-2.304c0-1.273-1.026-2.304-2.291-2.304
		c-1.264,0-2.291,1.031-2.291,2.304C50.85,239.337,51.876,240.37,53.141,240.37L53.141,240.37z"/>
</g>
</svg>
