<svg xmlns="http://www.w3.org/2000/svg" width="595.28" height="841.89" xml:space="preserve"><path d="M120.858 239.228c3.125 0 4.688 1.563 4.688 4.688v23.438h-7.031v-9.375h-11.719v9.375h-7.031v-23.438c0-3.125 1.563-4.688 4.688-4.688h16.405zm-14.062 4.688v9.375h11.719v-9.375h-11.719zM144.24 243.916v4.688h-9.375v18.75h-7.031v-18.75c0-3.125 1.563-4.688 4.688-4.688h11.718zM169.965 262.666v4.688h-18.75c-3.125 0-4.688-1.563-4.688-4.688v-14.063c0-3.125 1.563-4.688 4.688-4.688h18.75v4.688h-16.406v14.063h16.406zM188.658 267.236v-18.633h-9.375v18.633h-7.031v-32.695h7.031v9.375h11.719c3.125 0 4.688 1.563 4.688 4.688v18.633h-7.032zM205.008 234.541v4.688h-7.031v-4.688h7.031zm0 9.375v23.438h-7.031v-23.438h7.031zM214.327 243.798v16.523l9.375 2.344v-18.867h7.031v23.555h-7.031l-11.719-2.344c-3.125-1.563-4.688-3.906-4.688-7.031v-14.18h7.032zM256.458 267.353h-18.75c-3.125 0-4.688-1.563-4.688-4.688v-14.063c0-3.125 1.563-4.688 4.688-4.688h14.063c3.125 0 4.688 1.563 4.688 4.688v9.375h-16.406v4.688h16.406v4.688zm-16.406-18.75v4.688h9.375v-4.688h-9.375zM258.746 267.353v-4.688h16.406v-3.516l-11.719-2.344c-3.125 0-4.688-1.563-4.688-4.688v-3.516c0-3.125 1.563-4.688 4.688-4.688h18.75v4.688h-16.406v3.516l11.719 2.344c3.125 0 4.688 1.563 4.688 4.688v3.516c0 3.125-1.563 4.688-4.688 4.688h-18.75zM293.79 267.353v-4.688h18.75v-5.859l-14.062-2.344c-3.125 0-4.688-1.563-4.688-4.688v-5.859c0-3.125 1.563-4.688 4.688-4.688h21.093v4.688h-18.75v5.859l14.063 2.344c3.125 0 4.688 1.563 4.688 4.688v5.859c0 3.125-1.563 4.688-4.688 4.688H293.79zM345.296 267.353h-18.75c-3.125 0-4.688-1.563-4.688-4.688v-14.063c0-3.125 1.563-4.688 4.688-4.688h14.063c3.125 0 4.688 1.563 4.688 4.688v9.375H328.89v4.688h16.406v4.688zm-16.406-18.75v4.688h9.375v-4.688h-9.375zM363.989 243.916v4.688h-9.375v18.75h-7.031v-18.75c0-3.125 1.563-4.688 4.688-4.688h11.718zM373.309 243.798v16.523l9.375 2.344v-18.867h7.031v23.555h-7.031l-11.719-2.344c-3.125-1.563-4.688-3.906-4.688-7.031v-14.18h7.032zM415.439 267.353h-18.75c-3.125 0-4.688-1.563-4.688-4.688v-14.063c0-3.125 1.563-4.688 4.688-4.688h14.063c3.125 0 4.688 1.563 4.688 4.688v9.375h-16.406v4.688h16.406v4.688zm-16.406-18.75v4.688h9.375v-4.688h-9.375zM434.134 243.916v4.688h-9.375v18.75h-7.031v-18.75c0-3.125 1.563-4.688 4.688-4.688h11.718z"/><g><path fill="#4CBAEA" d="M50.711 260.997c.592-.04 1.347-.04 2.429-.04h32.072c1.083 0 1.837 0 2.428.04.581.041.919.115 1.178.223a3.445 3.445 0 0 1 1.859 1.87c.106.259.181.599.22 1.183.042.595.042 1.354.042 2.443s0 1.849-.042 2.443c-.039.583-.114.925-.22 1.185a3.453 3.453 0 0 1-1.859 1.871c-.259.107-.597.182-1.178.223-.591.041-1.345.041-2.428.041H53.141c-1.083 0-1.837 0-2.429-.041-.58-.041-.919-.116-1.178-.223a3.455 3.455 0 0 1-1.858-1.871c-.107-.26-.182-.601-.221-1.185-.041-.595-.042-1.354-.042-2.443 0-1.09.001-1.849.042-2.443.039-.584.114-.924.221-1.183a3.447 3.447 0 0 1 1.858-1.87c.258-.108.597-.182 1.177-.223zm2.43 8.024a2.298 2.298 0 0 0 2.291-2.305 2.3 2.3 0 0 0-2.291-2.305 2.3 2.3 0 0 0-2.291 2.305 2.298 2.298 0 0 0 2.291 2.305zm0-24.194c-1.083 0-1.837-.001-2.429-.042-.58-.04-.919-.114-1.178-.222a3.452 3.452 0 0 1-1.858-1.871c-.107-.26-.182-.599-.221-1.183-.041-.595-.042-1.354-.042-2.443 0-1.09.001-1.848.042-2.444.039-.583.114-.924.221-1.184a3.452 3.452 0 0 1 1.858-1.871c.259-.107.598-.182 1.178-.221.592-.042 1.347-.042 2.429-.042h32.072c1.083 0 1.837 0 2.428.042.581.039.919.114 1.178.221a3.45 3.45 0 0 1 1.859 1.871c.106.26.181.6.22 1.184.042.596.042 1.354.042 2.444 0 1.089 0 1.849-.042 2.443-.039.583-.114.923-.22 1.183a3.444 3.444 0 0 1-1.859 1.871c-.259.108-.597.182-1.178.222-.591.041-1.345.042-2.428.042H53.141zm0 2.303c-1.083 0-1.837.001-2.429.042-.58.039-.919.114-1.178.222a3.448 3.448 0 0 0-1.858 1.871c-.107.258-.182.599-.221 1.183-.041.595-.042 1.354-.042 2.443 0 1.09.001 1.848.042 2.444.039.583.114.924.221 1.183a3.45 3.45 0 0 0 1.858 1.872c.259.107.598.182 1.178.221.592.04 1.347.042 2.429.042h32.072c1.083 0 1.837-.001 2.428-.042.581-.039.919-.114 1.178-.221a3.449 3.449 0 0 0 1.859-1.872c.106-.259.181-.599.22-1.183.042-.596.042-1.354.042-2.444 0-1.089 0-1.849-.042-2.443-.039-.583-.114-.925-.22-1.183a3.44 3.44 0 0 0-1.859-1.871c-.259-.108-.597-.183-1.178-.222-.591-.041-1.345-.042-2.428-.042H53.141zm2.291 5.761a2.298 2.298 0 0 1-2.291 2.304 2.299 2.299 0 0 1-2.291-2.304 2.3 2.3 0 0 1 2.291-2.305 2.3 2.3 0 0 1 2.291 2.305zm-2.291-11.521a2.299 2.299 0 0 0 2.291-2.304 2.297 2.297 0 0 0-2.291-2.304 2.298 2.298 0 0 0-2.291 2.304 2.299 2.299 0 0 0 2.291 2.304z"/></g></svg>